<svg width="126" height="18" viewBox="0 0 126 18" fill="none" xmlns="http://www.w3.org/2000/svg">
<g clip-path="url(#clip0_196_10)">
<path d="M119.247 17.376C118.367 17.376 117.543 17.264 116.775 17.04C116.007 16.816 115.327 16.488 114.735 16.056C114.143 15.608 113.671 15.048 113.319 14.376C112.967 13.704 112.767 12.92 112.719 12.024H114.447C114.511 12.904 114.751 13.632 115.167 14.208C115.599 14.784 116.167 15.216 116.871 15.504C117.575 15.776 118.367 15.912 119.247 15.912C120.015 15.912 120.727 15.808 121.383 15.6C122.055 15.376 122.591 15.016 122.991 14.52C123.391 14.008 123.591 13.328 123.591 12.48C123.591 11.792 123.391 11.192 122.991 10.68C122.591 10.152 121.895 9.8 120.903 9.624L117.279 8.952C116.159 8.744 115.223 8.264 114.471 7.512C113.735 6.76 113.367 5.848 113.367 4.776C113.367 3.768 113.639 2.912 114.183 2.208C114.727 1.488 115.439 0.944 116.319 0.576C117.199 0.192 118.143 0 119.151 0C120.223 0 121.175 0.192 122.007 0.576C122.855 0.944 123.543 1.488 124.071 2.208C124.599 2.912 124.911 3.784 125.007 4.824H123.255C123.175 4.088 122.959 3.472 122.607 2.976C122.255 2.48 121.783 2.104 121.191 1.848C120.615 1.592 119.927 1.464 119.127 1.464C118.359 1.464 117.671 1.584 117.063 1.824C116.455 2.064 115.967 2.416 115.599 2.88C115.247 3.344 115.071 3.92 115.071 4.608C115.071 5.344 115.335 5.952 115.863 6.432C116.407 6.896 117.079 7.208 117.879 7.368L121.311 8.016C122.655 8.272 123.655 8.792 124.311 9.576C124.983 10.344 125.319 11.288 125.319 12.408C125.319 13.272 125.151 14.016 124.815 14.64C124.479 15.264 124.023 15.776 123.447 16.176C122.871 16.576 122.223 16.88 121.503 17.088C120.783 17.28 120.031 17.376 119.247 17.376Z" fill="black"/>
<path d="M91.8518 17.088V0.287998H93.5318V15.72H101.476V17.088H91.8518Z" fill="black"/>
<path d="M73.8399 17.088L80.0559 0.287998H81.7599L87.9519 17.088H86.1759L80.4879 1.392H81.3039L75.6159 17.088H73.8399ZM76.7199 12.624L77.2239 11.232H84.5679L85.0719 12.624H76.7199Z" fill="black"/>
<path d="M66.0004 17.088V1.68H60.9604V0.287998H72.7204V1.68H67.6804V17.088H66.0004Z" fill="black"/>
<path d="M47.4549 17.088V0.287998H57.6549V1.68H49.1349V7.944H56.9349V9.336H49.1349V15.696H57.6549V17.088H47.4549Z" fill="black"/>
<path d="M33.5174 17.088V0.287998H43.7174V1.68H35.1974V7.944H42.9974V9.336H35.1974V15.696H43.7174V17.088H33.5174Z" fill="black"/>
<path d="M27.3621 17.088V0.287998H29.0421V17.088H27.3621ZM16.5861 17.088V0.287998H18.2661V17.088H16.5861ZM17.8821 9.24V7.848H27.8421V9.24H17.8821Z" fill="black"/>
<path d="M6.528 17.376C5.648 17.376 4.824 17.264 4.056 17.04C3.288 16.816 2.608 16.488 2.016 16.056C1.424 15.608 0.952 15.048 0.6 14.376C0.248 13.704 0.048 12.92 0 12.024H1.728C1.792 12.904 2.032 13.632 2.448 14.208C2.88 14.784 3.448 15.216 4.152 15.504C4.856 15.776 5.648 15.912 6.528 15.912C7.296 15.912 8.008 15.808 8.664 15.6C9.336 15.376 9.872 15.016 10.272 14.52C10.672 14.008 10.872 13.328 10.872 12.48C10.872 11.792 10.672 11.192 10.272 10.68C9.872 10.152 9.176 9.8 8.184 9.624L4.56 8.952C3.44 8.744 2.504 8.264 1.752 7.512C1.016 6.76 0.648 5.848 0.648 4.776C0.648 3.768 0.92 2.912 1.464 2.208C2.008 1.488 2.72 0.944 3.6 0.576C4.48 0.192 5.424 0 6.432 0C7.504 0 8.456 0.192 9.288 0.576C10.136 0.944 10.824 1.488 11.352 2.208C11.88 2.912 12.192 3.784 12.288 4.824H10.536C10.456 4.088 10.24 3.472 9.888 2.976C9.536 2.48 9.064 2.104 8.472 1.848C7.896 1.592 7.208 1.464 6.408 1.464C5.64 1.464 4.952 1.584 4.344 1.824C3.736 2.064 3.248 2.416 2.88 2.88C2.528 3.344 2.352 3.92 2.352 4.608C2.352 5.344 2.616 5.952 3.144 6.432C3.688 6.896 4.36 7.208 5.16 7.368L8.592 8.016C9.936 8.272 10.936 8.792 11.592 9.576C12.264 10.344 12.6 11.288 12.6 12.408C12.6 13.272 12.432 14.016 12.096 14.64C11.76 15.264 11.304 15.776 10.728 16.176C10.152 16.576 9.504 16.88 8.784 17.088C8.064 17.28 7.312 17.376 6.528 17.376Z" fill="black"/>
</g>
<defs>
<clipPath id="clip0_196_10">
<rect width="125.319" height="17.376" fill="white"/>
</clipPath>
</defs>
</svg>
